<svg id="Layer_1" data-name="Layer 1" xmlns="http://www.w3.org/2000/svg" viewBox="0 0 417.62 41.81"><defs><style>.cls-1{fill:#fff;}.cls-2{fill:#f4af2c;}</style></defs><title>servicios-financieros</title><path class="cls-1" d="M-118.69,245.38a10.58,10.58,0,0,0,5.35,1.51c3.05,0,4.84-1.61,4.84-3.94,0-2.16-1.23-3.4-4.36-4.6-3.77-1.34-6.11-3.29-6.11-6.55,0-3.6,3-6.28,7.48-6.28a10.49,10.49,0,0,1,5.11,1.13l-0.82,2.43a9.21,9.21,0,0,0-4.39-1.1c-3.16,0-4.36,1.89-4.36,3.46,0,2.16,1.41,3.22,4.6,4.46,3.91,1.51,5.9,3.4,5.9,6.79,0,3.57-2.64,6.65-8.09,6.65a12,12,0,0,1-5.9-1.47Z" transform="translate(119.45 -218.71)"/><path class="cls-1" d="M-100.31,241.27c0.07,4.08,2.68,5.76,5.69,5.76a10.93,10.93,0,0,0,4.6-.86l0.51,2.16a13.44,13.44,0,0,1-5.52,1c-5.11,0-8.16-3.36-8.16-8.37s3-9,7.79-9c5.42,0,6.86,4.77,6.86,7.82a11.31,11.31,0,0,1-.1,1.41h-11.66Zm8.85-2.16c0-1.92-.79-4.91-4.18-4.91-3.05,0-4.39,2.81-4.63,4.91h8.82Z" transform="translate(119.45 -218.71)"/><path class="cls-1" d="M-85.31,237.6c0-2,0-3.64-.14-5.18h2.64l0.1,3.26h0.14A5,5,0,0,1-78,232a3.23,3.23,0,0,1,.86.1V235a4.55,4.55,0,0,0-1-.1c-2.13,0-3.64,1.61-4,3.88a8.46,8.46,0,0,0-.14,1.41V249h-3V237.6Z" transform="translate(119.45 -218.71)"/><path class="cls-1" d="M-73.45,232.42l3.26,9.33A42.67,42.67,0,0,1-68.85,246h0.1c0.38-1.37.86-2.74,1.41-4.25l3.22-9.33H-61L-67.48,249h-2.88l-6.31-16.6h3.22Z" transform="translate(119.45 -218.71)"/><path class="cls-1" d="M-55.27,227.75a1.78,1.78,0,0,1-1.92,1.85A1.79,1.79,0,0,1-59,227.75a1.84,1.84,0,0,1,1.89-1.89A1.79,1.79,0,0,1-55.27,227.75ZM-58.63,249v-16.6h3V249h-3Z" transform="translate(119.45 -218.71)"/><path class="cls-1" d="M-39.28,248.4a11.12,11.12,0,0,1-4.77,1c-5,0-8.27-3.4-8.27-8.47s3.5-8.82,8.92-8.82a10.1,10.1,0,0,1,4.19.86l-0.69,2.33a7,7,0,0,0-3.5-.79c-3.81,0-5.87,2.81-5.87,6.28,0,3.84,2.47,6.21,5.76,6.21a8.57,8.57,0,0,0,3.7-.82Z" transform="translate(119.45 -218.71)"/><path class="cls-1" d="M-32.9,227.75a1.78,1.78,0,0,1-1.92,1.85,1.79,1.79,0,0,1-1.82-1.85,1.84,1.84,0,0,1,1.89-1.89A1.79,1.79,0,0,1-32.9,227.75ZM-36.26,249v-16.6h3V249h-3Z" transform="translate(119.45 -218.71)"/><path class="cls-1" d="M-13.72,240.58c0,6.14-4.25,8.82-8.27,8.82-4.49,0-8-3.29-8-8.54,0-5.56,3.64-8.82,8.23-8.82C-16.95,232-13.72,235.51-13.72,240.58Zm-13.17.17c0,3.64,2.09,6.38,5,6.38s5-2.71,5-6.45c0-2.81-1.41-6.38-5-6.38S-26.9,237.6-26.9,240.75Z" transform="translate(119.45 -218.71)"/><path class="cls-1" d="M-10.84,245.93a7.91,7.91,0,0,0,4,1.2c2.2,0,3.22-1.1,3.22-2.47s-0.86-2.23-3.09-3.05c-3-1.06-4.39-2.71-4.39-4.7,0-2.68,2.16-4.87,5.73-4.87a8.29,8.29,0,0,1,4.08,1l-0.75,2.2a6.46,6.46,0,0,0-3.4-1c-1.78,0-2.78,1-2.78,2.26s1,2,3.16,2.81c2.88,1.1,4.36,2.54,4.36,5,0,2.92-2.26,5-6.21,5a9.46,9.46,0,0,1-4.67-1.13Z" transform="translate(119.45 -218.71)"/><path class="cls-1" d="M9.5,225.9H22v2.5H12.48v7.68h8.75v2.47H12.48V249h-3V225.9Z" transform="translate(119.45 -218.71)"/><path class="cls-1" d="M28.95,227.75a1.87,1.87,0,0,1-3.74,0,1.84,1.84,0,0,1,1.89-1.89A1.79,1.79,0,0,1,28.95,227.75ZM25.59,249v-16.6h3V249h-3Z" transform="translate(119.45 -218.71)"/><path class="cls-1" d="M33.1,236.91c0-1.71,0-3.12-.14-4.49h2.68l0.17,2.74h0.07A6.11,6.11,0,0,1,41.37,232c2.3,0,5.87,1.37,5.87,7.07V249h-3v-9.57c0-2.68-1-4.91-3.84-4.91a4.29,4.29,0,0,0-4,3.09,4.34,4.34,0,0,0-.21,1.41v10h-3V236.91Z" transform="translate(119.45 -218.71)"/><path class="cls-1" d="M60.82,249l-0.24-2.09h-0.1a6.18,6.18,0,0,1-5.08,2.47,4.73,4.73,0,0,1-5.08-4.77c0-4,3.57-6.21,10-6.17v-0.34c0-1.37-.38-3.84-3.77-3.84a8.27,8.27,0,0,0-4.32,1.24l-0.69-2A10.3,10.3,0,0,1,57,232c5.08,0,6.31,3.46,6.31,6.79V245a23.4,23.4,0,0,0,.27,4H60.82Zm-0.45-8.47c-3.29-.07-7,0.51-7,3.74a2.67,2.67,0,0,0,2.85,2.88,4.13,4.13,0,0,0,4-2.78,3.14,3.14,0,0,0,.17-1v-2.88Z" transform="translate(119.45 -218.71)"/><path class="cls-1" d="M67.64,236.91c0-1.71,0-3.12-.14-4.49h2.68l0.17,2.74h0.07A6.11,6.11,0,0,1,75.91,232c2.3,0,5.87,1.37,5.87,7.07V249h-3v-9.57c0-2.68-1-4.91-3.84-4.91a4.29,4.29,0,0,0-4,3.09,4.34,4.34,0,0,0-.21,1.41v10h-3V236.91Z" transform="translate(119.45 -218.71)"/><path class="cls-1" d="M98,248.4a11.13,11.13,0,0,1-4.77,1c-5,0-8.27-3.4-8.27-8.47s3.5-8.82,8.92-8.82a10.1,10.1,0,0,1,4.19.86l-0.69,2.33a7,7,0,0,0-3.5-.79c-3.81,0-5.87,2.81-5.87,6.28,0,3.84,2.47,6.21,5.76,6.21a8.57,8.57,0,0,0,3.71-.82Z" transform="translate(119.45 -218.71)"/><path class="cls-1" d="M104.38,227.75a1.87,1.87,0,0,1-3.74,0,1.84,1.84,0,0,1,1.89-1.89A1.79,1.79,0,0,1,104.38,227.75ZM101,249v-16.6h3V249h-3Z" transform="translate(119.45 -218.71)"/><path class="cls-1" d="M110.21,241.27c0.07,4.08,2.68,5.76,5.69,5.76a10.93,10.93,0,0,0,4.6-.86l0.51,2.16a13.45,13.45,0,0,1-5.52,1c-5.11,0-8.16-3.36-8.16-8.37s3-9,7.79-9c5.42,0,6.86,4.77,6.86,7.82a11.42,11.42,0,0,1-.1,1.41H110.21Zm8.85-2.16c0-1.92-.79-4.91-4.19-4.91-3.05,0-4.39,2.81-4.63,4.91h8.82Z" transform="translate(119.45 -218.71)"/><path class="cls-1" d="M125.2,237.6c0-2,0-3.64-.14-5.18h2.64l0.1,3.26h0.14a5,5,0,0,1,4.6-3.64,3.23,3.23,0,0,1,.86.1V235a4.55,4.55,0,0,0-1-.1c-2.13,0-3.64,1.61-4,3.88a8.41,8.41,0,0,0-.14,1.41V249h-3V237.6Z" transform="translate(119.45 -218.71)"/><path class="cls-1" d="M150.93,240.58c0,6.14-4.25,8.82-8.27,8.82-4.49,0-8-3.29-8-8.54,0-5.56,3.64-8.82,8.23-8.82C147.71,232,150.93,235.51,150.93,240.58Zm-13.17.17c0,3.64,2.09,6.38,5,6.38s5-2.71,5-6.45c0-2.81-1.41-6.38-5-6.38S137.76,237.6,137.76,240.75Z" transform="translate(119.45 -218.71)"/><path class="cls-1" d="M153.81,245.93a7.91,7.91,0,0,0,4,1.2c2.2,0,3.22-1.1,3.22-2.47s-0.86-2.23-3.09-3.05c-3-1.06-4.39-2.71-4.39-4.7,0-2.68,2.16-4.87,5.73-4.87a8.28,8.28,0,0,1,4.08,1l-0.75,2.2a6.46,6.46,0,0,0-3.4-1c-1.78,0-2.78,1-2.78,2.26s1,2,3.16,2.81c2.88,1.1,4.36,2.54,4.36,5,0,2.92-2.26,5-6.21,5a9.46,9.46,0,0,1-4.67-1.13Z" transform="translate(119.45 -218.71)"/><rect class="cls-1" x="296.2" width="1.63" height="41.81"/><path class="cls-1" d="M252,242.12c0-2.61-1.11-4.91-4.88-4.91a8.88,8.88,0,0,0-4.3,1l0.61,2.09a6.34,6.34,0,0,1,3.14-.88c1.91,0,2.22,1.08,2.22,1.78v0.17c-4.16,0-6.8,1.43-6.8,4.37a3.47,3.47,0,0,0,3.67,3.47,4.16,4.16,0,0,0,3.35-1.49h0.07s0.48,2,3.1,1.23a16.8,16.8,0,0,1-.18-2.78v-4.09Zm-3.11,2.76a2,2,0,0,1-2.18,2.09,1.42,1.42,0,0,1-1.54-1.52c0-1.58,1.74-2,3.72-2v1.44Z" transform="translate(119.45 -218.71)"/><path class="cls-1" d="M187.14,233.66s2.72,11.15,3.15,13c0.51,2.11,1.42,2.89,4.06,2.37l1.7-6.92c0.43-1.72.72-2.94,1-4.69h0.05a45.51,45.51,0,0,0,.82,4.69s0.69,3.14,1.05,4.79,1.34,2.69,3.92,2.12l4-15.33h-3.27l-1.38,6.63c-0.37,1.93-.71,3.43-1,5.2h0c-0.24-1.75-.54-3.2-0.91-5.08l-1.44-6.75h-3.41L194,240.25c-0.44,2-.85,3.62-1.11,5.32h0c-0.27-1.61-.62-3.63-1-5.57,0,0-.91-4.71-1.23-6.33h-3.44Z" transform="translate(119.45 -218.71)"/><path class="cls-1" d="M216.23,242.12c0-2.61-1.11-4.91-4.88-4.91a8.9,8.9,0,0,0-4.3,1l0.61,2.09a6.32,6.32,0,0,1,3.14-.88c1.91,0,2.22,1.08,2.22,1.78v0.17c-4.16,0-6.8,1.43-6.8,4.37a3.47,3.47,0,0,0,3.67,3.47,4.18,4.18,0,0,0,3.35-1.49h0.07s0.48,2,3.1,1.23a16.61,16.61,0,0,1-.18-2.78v-4.09Zm-3.11,2.76a2.16,2.16,0,0,1-.08.62,2.19,2.19,0,0,1-2.1,1.47,1.42,1.42,0,0,1-1.54-1.52c0-1.58,1.74-2,3.72-2v1.44Z" transform="translate(119.45 -218.71)"/><polygon class="cls-1" points="340.87 27.02 340.87 14.95 337.75 14.95 337.75 30.28 340.87 30.28 340.87 27.02"/><path class="cls-1" d="M262.14,233.66V245a4.76,4.76,0,0,0,.92,3.32,3.47,3.47,0,0,0,2.54,1,7.34,7.34,0,0,0,2.25-.33l0-2.43a4.66,4.66,0,0,1-1.18.14c-1.06,0-1.41-.68-1.41-2.08v-4.33h2.71v-2.93h-2.71v-3.63h-3.07Z" transform="translate(119.45 -218.71)"/><path class="cls-1" d="M254.11,237.48V249h3.21v-5.9a4.29,4.29,0,0,1,.07-0.85,2.42,2.42,0,0,1,2.54-2,6.18,6.18,0,0,1,.93.08v-3a3,3,0,0,0-.71-0.07,3.39,3.39,0,0,0-3.13,2.43h-0.09v-2.17h-2.81Z" transform="translate(119.45 -218.71)"/><path class="cls-1" d="M223.6,237.48V249h3.13v-6.75a2.7,2.7,0,0,1,.15-0.94,2.13,2.13,0,0,1,1.9-1.48c1.26,0,1.85,1.07,1.85,2.61V249h3.13v-6.84a3.19,3.19,0,0,1,.13-0.93,2,2,0,0,1,1.88-1.41c1.28,0,1.89,1,1.89,2.86V249h3.13v-6.78c0-3.58-1.82-5-3.86-5a4.17,4.17,0,0,0-2.28.63,4.88,4.88,0,0,0-1.46,1.43h0a3.29,3.29,0,0,0-3.18-2.06,3.62,3.62,0,0,0-3.35,1.83h0v-1.56h-3Z" transform="translate(119.45 -218.71)"/><path class="cls-2" d="M284.74,237a1.13,1.13,0,0,0,1.2-.74l0.61-6.91a1.93,1.93,0,0,0-3.61,0l0.61,6.91a1.13,1.13,0,0,0,1.2.74h0Z" transform="translate(119.45 -218.71)"/><path class="cls-2" d="M281,239.17a1.12,1.12,0,0,0,0-1.4l-5.68-4a1.93,1.93,0,0,0-1.8,3.12l6.29,2.93a1.14,1.14,0,0,0,1.24-.67h0Z" transform="translate(119.45 -218.71)"/><path class="cls-2" d="M288.48,239.17a1.14,1.14,0,0,0,1.24.67l6.29-2.93a1.93,1.93,0,0,0-1.8-3.12l-5.68,4a1.13,1.13,0,0,0,0,1.4h0Z" transform="translate(119.45 -218.71)"/><path class="cls-2" d="M284.74,245.64a1.13,1.13,0,0,1,1.2.74l0.61,6.91a1.93,1.93,0,0,1-3.61,0l0.61-6.91a1.13,1.13,0,0,1,1.2-.74h0Z" transform="translate(119.45 -218.71)"/><path class="cls-2" d="M288.48,243.49a1.13,1.13,0,0,1,1.24-.67l6.29,2.92a1.93,1.93,0,0,1-1.8,3.13l-5.68-4a1.14,1.14,0,0,1,0-1.41h0Z" transform="translate(119.45 -218.71)"/><path class="cls-2" d="M281,243.48a1.12,1.12,0,0,1,0,1.41l-5.68,4a1.93,1.93,0,0,1-1.8-3.13l6.29-2.92a1.13,1.13,0,0,1,1.24.67h0Z" transform="translate(119.45 -218.71)"/><path class="cls-2" d="M297.5,248.2a0.66,0.66,0,1,1,0,1.33,0.67,0.67,0,1,1,0-1.33h0Zm0,0.13a0.53,0.53,0,0,0,0,1.06,0.5,0.5,0,0,0,.5-0.53,0.51,0.51,0,0,0-.51-0.53h0Zm-0.1.88h-0.16v-0.66a1.34,1.34,0,0,1,.25,0,0.37,0.37,0,0,1,.23.05,0.18,0.18,0,0,1,.07.14,0.18,0.18,0,0,1-.14.16h0a0.18,0.18,0,0,1,.12.16,0.48,0.48,0,0,0,.05.16h-0.17a0.64,0.64,0,0,1-.05-0.16,0.12,0.12,0,0,0-.14-0.1h-0.07v0.26Zm0-.37h0.08c0.09,0,.15,0,0.15-0.1s0-.1-0.14-0.1h-0.09v0.19Z" transform="translate(119.45 -218.71)"/></svg>