<svg id="Layer_1" data-name="Layer 1" xmlns="http://www.w3.org/2000/svg" viewBox="0 0 417.62 41.81"><defs><style>.cls-1{fill:#fff;}.cls-2{fill:#f4af2c;}</style></defs><title>servicios-financieros</title><path class="cls-1" d="M122.3,21.83c0-3.47-1.47-6.52-6.48-6.52a11.8,11.8,0,0,0-5.71,1.33l0.81,2.78a8.42,8.42,0,0,1,4.17-1.17c2.54,0,2.95,1.43,2.95,2.36v0.23c-5.53,0-9,1.9-9,5.8a4.61,4.61,0,0,0,4.6,4.62h0.27a5.53,5.53,0,0,0,4.45-2h0.09s0.64,2.66,4.12,1.63a22.32,22.32,0,0,1-.24-3.69V21.83h0Zm-4.13,3.67a2.66,2.66,0,0,1-2.52,2.78h-0.37a1.89,1.89,0,0,1-2-2c0-2.1,2.31-2.66,4.94-2.66v1.91Z"/><path class="cls-1" d="M36.14,10.6s3.61,14.81,4.18,17.27c0.68,2.8,1.89,3.84,5.39,3.15L48,21.82a55.7,55.7,0,0,0,1.33-6.23H49.4a60.45,60.45,0,0,0,1.09,6.23s0.92,4.17,1.39,6.36,1.78,3.57,5.21,2.82L62.4,10.64H58l-1.8,8.8C55.71,22,55.26,24,54.87,26.35h0c-0.32-2.32-.72-4.25-1.21-6.75l-1.91-9H47.22l-2,8.71c-0.58,2.66-1.13,4.81-1.47,7.07h0c-0.36-2.14-.82-4.82-1.33-7.4,0,0-1.21-6.26-1.63-8.41H36.14v0Z"/><path class="cls-1" d="M74.78,21.83c0-3.47-1.47-6.52-6.48-6.52a11.82,11.82,0,0,0-5.71,1.33l0.81,2.78a8.4,8.4,0,0,1,4.17-1.17c2.54,0,2.95,1.43,2.95,2.36v0.23c-5.53,0-9,1.9-9,5.8a4.61,4.61,0,0,0,4.6,4.62h0.27a5.55,5.55,0,0,0,4.45-2h0.09s0.64,2.66,4.12,1.63a22.06,22.06,0,0,1-.24-3.69V21.83h0ZM70.65,25.5a2.87,2.87,0,0,1-.11.82,2.91,2.91,0,0,1-2.79,2,1.89,1.89,0,0,1-2-2c0-2.1,2.31-2.66,4.94-2.66v1.91Z"/><polygon class="cls-1" points="81.68 26.63 81.68 10.6 77.53 10.6 77.53 30.96 81.68 30.96 81.68 26.63"/><path class="cls-1" d="M135.77,10.6V25.66A6.32,6.32,0,0,0,137,30.07a4.61,4.61,0,0,0,3.37,1.33,9.75,9.75,0,0,0,3-.44V27.73a6.19,6.19,0,0,1-1.57.19c-1.41,0-1.87-.9-1.87-2.76V19.4h3.6V15.51h-3.6V10.69h-4.08Z"/><path class="cls-1" d="M125.1,15.67V31h4.26V23.14a5.7,5.7,0,0,1,.09-1.13,3.21,3.21,0,0,1,3.37-2.66,8.21,8.21,0,0,1,1.24.11v-4a4,4,0,0,0-.94-0.09A4.5,4.5,0,0,0,129,18.61h-0.12V15.72h-3.73Z"/><path class="cls-1" d="M84.57,15.67V31h4.16V22a3.59,3.59,0,0,1,.2-1.25,2.83,2.83,0,0,1,2.52-2c1.67,0,2.46,1.42,2.46,3.47V31h4.16V21.89a4.24,4.24,0,0,1,.17-1.24,2.66,2.66,0,0,1,2.5-1.87c1.7,0,2.51,1.33,2.51,3.8V31h4.16V22c0-4.76-2.42-6.64-5.13-6.64a5.54,5.54,0,0,0-3,.84,6.48,6.48,0,0,0-1.94,1.9h0a4.37,4.37,0,0,0-4.22-2.74,4.81,4.81,0,0,0-4.45,2.43h0V15.68h-4.1Z"/><path class="cls-2" d="M165.79,15a1.5,1.5,0,0,0,1.59-1l0.81-9.18a2.56,2.56,0,0,0-4.8,0L164.2,14a1.5,1.5,0,0,0,1.59,1h0Z"/><path class="cls-2" d="M160.82,17.92a1.49,1.49,0,0,0,0-1.86l-7.55-5.31a2.56,2.56,0,0,0-2.39,4.14l8.36,3.89a1.51,1.51,0,0,0,1.65-.89h0Z"/><path class="cls-2" d="M170.75,17.92a1.51,1.51,0,0,0,1.65.89l8.36-3.89a2.56,2.56,0,0,0-2.39-4.14l-7.55,5.31a1.5,1.5,0,0,0,0,1.86h0Z"/><path class="cls-2" d="M165.79,26.51a1.5,1.5,0,0,1,1.59,1l0.81,9.18a2.56,2.56,0,0,1-4.8,0l0.81-9.18a1.5,1.5,0,0,1,1.59-1h0Z"/><path class="cls-2" d="M170.75,23.65a1.5,1.5,0,0,1,1.65-.89l8.36,3.88a2.56,2.56,0,0,1-2.39,4.16l-7.55-5.31a1.51,1.51,0,0,1,0-1.87h0Z"/><path class="cls-2" d="M160.82,23.64a1.49,1.49,0,0,1,0,1.87l-7.55,5.31a2.56,2.56,0,0,1-2.39-4.16l8.36-3.88a1.5,1.5,0,0,1,1.65.89h0Z"/><path class="cls-2" d="M182.74,29.91a0.89,0.89,0,1,1-.22,0h0.22Zm0,0.17a0.7,0.7,0,1,0,0,1.41,0.66,0.66,0,0,0,.67-0.65h0a0.68,0.68,0,0,0-.65-0.7h0Zm-0.13,1.17H182.4V30.37a1.78,1.78,0,0,1,.33,0,0.49,0.49,0,0,1,.31.07,0.22,0.22,0,0,1-.09.4h0a0.24,0.24,0,0,1,.16.21,0.64,0.64,0,0,0,.07.21H183a0.85,0.85,0,0,1-.07-0.21,0.16,0.16,0,0,0-.18-0.13h-0.1v0.33Zm0-.49h0.11c0.12,0,.2,0,0.2-0.13s0-.13-0.19-0.13h-0.12v0.25h0Z"/><path class="cls-1" d="M246.75,23.12a1.84,1.84,0,0,0-1.21-.53,2.1,2.1,0,0,0-2,1.84A1.46,1.46,0,0,0,245,26.28a2.14,2.14,0,0,0,1.33-.51L246,28a4.25,4.25,0,0,1-1.83.42,3.23,3.23,0,0,1-3.26-3.93,4.69,4.69,0,0,1,4.56-4.09,2.93,2.93,0,0,1,1.59.44l-0.34,2.26"/><path class="cls-1" d="M251.33,14.88L250.42,21h0a3.32,3.32,0,0,1,2.68-1.32c2,0,2.71,1.39,2.4,3.48l-0.75,5.06H252L252.63,24c0.14-1,.16-2-0.95-2s-1.59,1-1.73,2l-0.63,4.23h-2.76l2-13.36h2.75"/><path class="cls-1" d="M265.15,28.23h-3l0.15-1h0a3.41,3.41,0,0,1-2.74,1.3c-2.5,0-3.93-2.22-3.54-4.78S258.44,19,260.93,19a2.83,2.83,0,0,1,2.43,1.17l0.13-.88h3l-1.34,9m-6.06-4.47a1.58,1.58,0,0,0,1.62,2,2.23,2.23,0,0,0,2.22-2,1.6,1.6,0,0,0-1.62-2,2.27,2.27,0,0,0-2.22,1.94v0.06Z"/><path class="cls-1" d="M270.64,19.41h0A3.81,3.81,0,0,1,274,17.78c2.56,0,3.32,1.72,3,4.2l-1,6.25h-3.38l0.74-4.93c0.14-1,.54-2.66-1.13-2.66-1.37,0-1.92,1.09-2.11,2.35l-0.78,5.25H266l1.51-10.12h3.37l-0.2,1.3"/><path class="cls-1" d="M289.13,27.09c-0.72,4.81-3.25,6.76-7.16,6.76-2.45,0-5.53-1.35-5.42-4.33h4.24a1.12,1.12,0,0,0,.58.86,2.09,2.09,0,0,0,1,.27c2,0,2.64-1.41,2.91-3.25l0.08-.53a5,5,0,0,1-3.61,1.54c-3.11,0-4.87-2.51-4.39-5.78s3.12-6.13,6.37-6.13a3,3,0,0,1,2.9,1.57h0l0.17-1.19h3.78l-1.52,10.21m-7.82-4.63A2,2,0,0,0,283.36,25a2.8,2.8,0,0,0,2.8-2.54,2,2,0,0,0-2-2.56,2.87,2.87,0,0,0-2.85,2.56h-0.07Z"/><path class="cls-1" d="M304.6,21.67a7.84,7.84,0,0,1-8,6.6c-3.73,0-6.68-2.37-6-6.6a7.84,7.84,0,0,1,8-6.63c3.75,0,6.67,2.4,6,6.63m-9.69,0a2.19,2.19,0,0,0,2.25,2.78,3.08,3.08,0,0,0,3.07-2.78A2.22,2.22,0,0,0,298,18.86,3.14,3.14,0,0,0,294.91,21.67Z"/><path class="cls-1" d="M311.51,15.46h0a5.89,5.89,0,0,1,4.67-2.3,4.17,4.17,0,0,1,4.26,2.79,6.18,6.18,0,0,1,5.07-2.79c3.47,0,4.31,2.42,3.81,5.77L328,28.23h-4.87l1-7c0.22-1.51.65-4-1.42-4-2.24,0-2.65,2.25-2.91,4l-1,7h-4.87l1-7c0.24-1.62.61-4.1-1.56-4.1s-2.53,2.47-2.78,4.1l-1,7h-4.86l2.17-14.59h4.86l-0.27,1.82"/><path class="cls-1" d="M347.83,28h-5.76l0.28-1.92h-0.06a6.58,6.58,0,0,1-5.28,2.5c-4.82,0-7.56-4.28-6.82-9.23s4.69-9.2,9.5-9.2a5.51,5.51,0,0,1,4.7,2.26l0.25-1.68h5.76L347.83,28m-11.69-8.62c-0.32,2.19.79,3.87,3.13,3.87a4.29,4.29,0,0,0,4.28-3.87c0.31-2.12-.78-3.91-3.12-3.91a4.37,4.37,0,0,0-4.29,3.91h0Z"/><path class="cls-1" d="M364.64,13.53a7,7,0,0,0-3.41-1c-0.76,0-2.11.34-2.26,1.35-0.2,1.34,1.83,1.54,2.71,1.73,3,0.65,5.06,2.19,4.51,5.85-0.77,5.19-5.54,7.35-9.84,7.35a12.15,12.15,0,0,1-7.15-2.27l3.11-4.89a8.8,8.8,0,0,0,4.91,2c0.83,0,2.13-.42,2.29-1.5,0.23-1.54-1.82-1.61-3.8-2.19s-3.87-1.65-3.35-5.19c0.72-4.85,5.17-7,9.22-7A12.81,12.81,0,0,1,367.5,9l-2.86,4.47"/></svg>